{
    "asset" : {
        "generator" : "Khronos glTF Blender I/O v1.5.17",
        "version" : "2.0"
    },
    "scene" : 0,
    "scenes" : [
        {
            "name" : "Scene",
            "nodes" : [
                0,
                1,
                2
            ]
        }
    ],
    "nodes" : [
        {
            "mesh" : 0,
            "name" : "Icosphere.007",
            "rotation" : [
                0.19102245569229126,
                0.044714272022247314,
                -0.10638280212879181,
                0.9747788310050964
            ],
            "scale" : [
                0.5209622383117676,
                0.4796002209186554,
                0.4982740879058838
            ],
            "translation" : [
                2.8376662731170654,
                4.644052028656006,
                -4.72001314163208
            ]
        },
        {
            "mesh" : 1,
            "name" : "Icosphere.008",
            "rotation" : [
                -0.018795769661664963,
                0.8749287724494934,
                -0.18927130103111267,
                0.44533443450927734
            ],
            "scale" : [
                0.42958003282546997,
                0.39547333121299744,
                0.41087159514427185
            ],
            "translation" : [
                3.2536118030548096,
                4.589568614959717,
                -4.763524532318115
            ]
        },
        {
            "mesh" : 2,
            "name" : "Icosphere.009",
            "rotation" : [
                -0.02089637704193592,
                0.5909420251846313,
                0.006231856998056173,
                0.8064192533493042
            ],
            "scale" : [
                0.3618471324443817,
                0.33311814069747925,
                0.34608855843544006
            ],
            "translation" : [
                3.5964162349700928,
                4.630418300628662,
                -4.755016326904297
            ]
        }
    ],
    "materials" : [
        {
            "doubleSided" : true,
            "name" : "clouds",
            "pbrMetallicRoughness" : {
                "baseColorFactor" : [
                    0.8962695598602295,
                    0.9822506904602051,
                    0.9822508096694946,
                    1
                ],
                "metallicFactor" : 0,
                "roughnessFactor" : 0.5
            }
        }
    ],
    "meshes" : [
        {
            "name" : "Icosphere.011",
            "primitives" : [
                {
                    "attributes" : {
                        "POSITION" : 0,
                        "NORMAL" : 1,
                        "TEXCOORD_0" : 2
                    },
                    "indices" : 3,
                    "material" : 0
                }
            ]
        },
        {
            "name" : "Icosphere.012",
            "primitives" : [
                {
                    "attributes" : {
                        "POSITION" : 4,
                        "NORMAL" : 5,
                        "TEXCOORD_0" : 6
                    },
                    "indices" : 3,
                    "material" : 0
                }
            ]
        },
        {
            "name" : "Icosphere.013",
            "primitives" : [
                {
                    "attributes" : {
                        "POSITION" : 7,
                        "NORMAL" : 8,
                        "TEXCOORD_0" : 9
                    },
                    "indices" : 3,
                    "material" : 0
                }
            ]
        }
    ],
    "accessors" : [
        {
            "bufferView" : 0,
            "componentType" : 5126,
            "count" : 60,
            "max" : [
                0.8944249749183655,
                0.9999997615814209,
                0.8506399989128113
            ],
            "min" : [
                -0.8944249749183655,
                -1.000000238418579,
                -0.8506399989128113
            ],
            "type" : "VEC3"
        },
        {
            "bufferView" : 1,
            "componentType" : 5126,
            "count" : 60,
            "type" : "VEC3"
        },
        {
            "bufferView" : 2,
            "componentType" : 5126,
            "count" : 60,
            "type" : "VEC2"
        },
        {
            "bufferView" : 3,
            "componentType" : 5123,
            "count" : 60,
            "type" : "SCALAR"
        },
        {
            "bufferView" : 4,
            "componentType" : 5126,
            "count" : 60,
            "max" : [
                0.8944249749183655,
                0.9999999403953552,
                0.8506399989128113
            ],
            "min" : [
                -0.8944249749183655,
                -1.0000001192092896,
                -0.8506399989128113
            ],
            "type" : "VEC3"
        },
        {
            "bufferView" : 5,
            "componentType" : 5126,
            "count" : 60,
            "type" : "VEC3"
        },
        {
            "bufferView" : 6,
            "componentType" : 5126,
            "count" : 60,
            "type" : "VEC2"
        },
        {
            "bufferView" : 7,
            "componentType" : 5126,
            "count" : 60,
            "max" : [
                0.8944249749183655,
                0.9999997615814209,
                0.8506399989128113
            ],
            "min" : [
                -0.8944249749183655,
                -1.000000238418579,
                -0.8506399989128113
            ],
            "type" : "VEC3"
        },
        {
            "bufferView" : 8,
            "componentType" : 5126,
            "count" : 60,
            "type" : "VEC3"
        },
        {
            "bufferView" : 9,
            "componentType" : 5126,
            "count" : 60,
            "type" : "VEC2"
        }
    ],
    "bufferViews" : [
        {
            "buffer" : 0,
            "byteLength" : 720,
            "byteOffset" : 0
        },
        {
            "buffer" : 0,
            "byteLength" : 720,
            "byteOffset" : 720
        },
        {
            "buffer" : 0,
            "byteLength" : 480,
            "byteOffset" : 1440
        },
        {
            "buffer" : 0,
            "byteLength" : 120,
            "byteOffset" : 1920
        },
        {
            "buffer" : 0,
            "byteLength" : 720,
            "byteOffset" : 2040
        },
        {
            "buffer" : 0,
            "byteLength" : 720,
            "byteOffset" : 2760
        },
        {
            "buffer" : 0,
            "byteLength" : 480,
            "byteOffset" : 3480
        },
        {
            "buffer" : 0,
            "byteLength" : 720,
            "byteOffset" : 3960
        },
        {
            "buffer" : 0,
            "byteLength" : 720,
            "byteOffset" : 4680
        },
        {
            "buffer" : 0,
            "byteLength" : 480,
            "byteOffset" : 5400
        }
    ],
    "buffers" : [
        {
            "byteLength" : 5880,
            "uri" : "data:application/octet-stream;base64,"
        }
    ]
}
