{
    "asset" : {
        "generator" : "Khronos glTF Blender I/O v1.5.17",
        "version" : "2.0"
    },
    "scene" : 0,
    "scenes" : [
        {
            "name" : "Scene",
            "nodes" : [
                0,
                1,
                2
            ]
        }
    ],
    "nodes" : [
        {
            "mesh" : 0,
            "name" : "Icosphere.004",
            "scale" : [
                0.8296392560005188,
                0.763769805431366,
                0.7935081720352173
            ],
            "translation" : [
                -6.749903678894043,
                5.109676361083984,
                -10.553407669067383
            ]
        },
        {
            "mesh" : 1,
            "name" : "Icosphere.005",
            "rotation" : [
                -0.18800483644008636,
                0.7947946190834045,
                -0.3050931990146637,
                0.48976919054985046
            ],
            "scale" : [
                0.6841118931770325,
                0.62979656457901,
                0.654318630695343
            ],
            "translation" : [
                -6.079776763916016,
                5.154757499694824,
                -10.553407669067383
            ]
        },
        {
            "mesh" : 2,
            "name" : "Icosphere.006",
            "rotation" : [
                -0.2375582754611969,
                0.5389467477798462,
                -0.021953687071800232,
                0.8078492879867554
            ],
            "scale" : [
                0.4992947280406952,
                0.45965299010276794,
                0.4775502383708954
            ],
            "translation" : [
                -5.676328182220459,
                5.313169479370117,
                -10.542089462280273
            ]
        }
    ],
    "materials" : [
        {
            "doubleSided" : true,
            "name" : "clouds",
            "pbrMetallicRoughness" : {
                "baseColorFactor" : [
                    0.8962695598602295,
                    0.9822506904602051,
                    0.9822508096694946,
                    1
                ],
                "metallicFactor" : 0,
                "roughnessFactor" : 0.5
            }
        }
    ],
    "meshes" : [
        {
            "name" : "Icosphere.008",
            "primitives" : [
                {
                    "attributes" : {
                        "POSITION" : 0,
                        "NORMAL" : 1,
                        "TEXCOORD_0" : 2
                    },
                    "indices" : 3,
                    "material" : 0
                }
            ]
        },
        {
            "name" : "Icosphere.009",
            "primitives" : [
                {
                    "attributes" : {
                        "POSITION" : 4,
                        "NORMAL" : 5,
                        "TEXCOORD_0" : 6
                    },
                    "indices" : 3,
                    "material" : 0
                }
            ]
        },
        {
            "name" : "Icosphere.010",
            "primitives" : [
                {
                    "attributes" : {
                        "POSITION" : 7,
                        "NORMAL" : 8,
                        "TEXCOORD_0" : 9
                    },
                    "indices" : 3,
                    "material" : 0
                }
            ]
        }
    ],
    "accessors" : [
        {
            "bufferView" : 0,
            "componentType" : 5126,
            "count" : 60,
            "max" : [
                0.8944249749183655,
                0.9999997615814209,
                0.8506399989128113
            ],
            "min" : [
                -0.8944249749183655,
                -1.000000238418579,
                -0.8506399989128113
            ],
            "type" : "VEC3"
        },
        {
            "bufferView" : 1,
            "componentType" : 5126,
            "count" : 60,
            "type" : "VEC3"
        },
        {
            "bufferView" : 2,
            "componentType" : 5126,
            "count" : 60,
            "type" : "VEC2"
        },
        {
            "bufferView" : 3,
            "componentType" : 5123,
            "count" : 60,
            "type" : "SCALAR"
        },
        {
            "bufferView" : 4,
            "componentType" : 5126,
            "count" : 60,
            "max" : [
                0.8944249749183655,
                0.9999999403953552,
                0.8506399989128113
            ],
            "min" : [
                -0.8944249749183655,
                -1.0000001192092896,
                -0.8506399989128113
            ],
            "type" : "VEC3"
        },
        {
            "bufferView" : 5,
            "componentType" : 5126,
            "count" : 60,
            "type" : "VEC3"
        },
        {
            "bufferView" : 6,
            "componentType" : 5126,
            "count" : 60,
            "type" : "VEC2"
        },
        {
            "bufferView" : 7,
            "componentType" : 5126,
            "count" : 60,
            "max" : [
                0.8944249749183655,
                0.9999997615814209,
                0.8506399989128113
            ],
            "min" : [
                -0.8944249749183655,
                -1.000000238418579,
                -0.8506399989128113
            ],
            "type" : "VEC3"
        },
        {
            "bufferView" : 8,
            "componentType" : 5126,
            "count" : 60,
            "type" : "VEC3"
        },
        {
            "bufferView" : 9,
            "componentType" : 5126,
            "count" : 60,
            "type" : "VEC2"
        }
    ],
    "bufferViews" : [
        {
            "buffer" : 0,
            "byteLength" : 720,
            "byteOffset" : 0
        },
        {
            "buffer" : 0,
            "byteLength" : 720,
            "byteOffset" : 720
        },
        {
            "buffer" : 0,
            "byteLength" : 480,
            "byteOffset" : 1440
        },
        {
            "buffer" : 0,
            "byteLength" : 120,
            "byteOffset" : 1920
        },
        {
            "buffer" : 0,
            "byteLength" : 720,
            "byteOffset" : 2040
        },
        {
            "buffer" : 0,
            "byteLength" : 720,
            "byteOffset" : 2760
        },
        {
            "buffer" : 0,
            "byteLength" : 480,
            "byteOffset" : 3480
        },
        {
            "buffer" : 0,
            "byteLength" : 720,
            "byteOffset" : 3960
        },
        {
            "buffer" : 0,
            "byteLength" : 720,
            "byteOffset" : 4680
        },
        {
            "buffer" : 0,
            "byteLength" : 480,
            "byteOffset" : 5400
        }
    ],
    "buffers" : [
        {
            "byteLength" : 5880,
            "uri" : "data:application/octet-stream;base64,"
        }
    ]
}
