{
    "asset" : {
        "generator" : "Khronos glTF Blender I/O v1.5.17",
        "version" : "2.0"
    },
    "scene" : 0,
    "scenes" : [
        {
            "name" : "Scene",
            "nodes" : [
                0
            ]
        }
    ],
    "nodes" : [
        {
            "mesh" : 0,
            "name" : "Love",
            "rotation" : [
                0.7071068286895752,
                0,
                0,
                0.7071067094802856
            ],
            "scale" : [
                0.022975724190473557,
                0.022975724190473557,
                0.022975724190473557
            ]
        }
    ],
    "materials" : [
        {
            "doubleSided" : true,
            "name" : "wire_143224087",
            "pbrMetallicRoughness" : {
                "baseColorFactor" : [
                    0.775822639465332,
                    0.042311299592256546,
                    0.02518688142299652,
                    1
                ],
                "metallicFactor" : 0,
                "roughnessFactor" : 0.344637393951416
            }
        }
    ],
    "meshes" : [
        {
            "name" : "Love",
            "primitives" : [
                {
                    "attributes" : {
                        "POSITION" : 0,
                        "NORMAL" : 1
                    },
                    "indices" : 2,
                    "material" : 0
                }
            ]
        }
    ],
    "accessors" : [
        {
            "bufferView" : 0,
            "componentType" : 5126,
            "count" : 538,
            "max" : [
                40.20050048828125,
                19.750099182128906,
                -1.6319999694824219
            ],
            "min" : [
                -40.12969970703125,
                -19.834299087524414,
                -68.78739929199219
            ],
            "type" : "VEC3"
        },
        {
            "bufferView" : 1,
            "componentType" : 5126,
            "count" : 538,
            "type" : "VEC3"
        },
        {
            "bufferView" : 2,
            "componentType" : 5123,
            "count" : 540,
            "type" : "SCALAR"
        }
    ],
    "bufferViews" : [
        {
            "buffer" : 0,
            "byteLength" : 6456,
            "byteOffset" : 0
        },
        {
            "buffer" : 0,
            "byteLength" : 6456,
            "byteOffset" : 6456
        },
        {
            "buffer" : 0,
            "byteLength" : 1080,
            "byteOffset" : 12912
        }
    ],
    "buffers" : [
        {
            "byteLength" : 13992,
            "uri" : "data:application/octet-stream;base64,"
        }
    ]
}
