{
    "asset" : {
        "generator" : "Khronos glTF Blender I/O v1.3.48",
        "version" : "2.0"
    },
    "scene" : 0,
    "scenes" : [
        {
            "name" : "Scene",
            "nodes" : [
                0
            ]
        }
    ],
    "nodes" : [
        {
            "mesh" : 0,
            "name" : "kroliczek",
            "rotation" : [
                -0.037907250225543976,
                0.15729734301567078,
                -0.14808101952075958,
                0.9756498336791992
            ],
            "scale" : [
                0.8280327916145325,
                0.7258385419845581,
                0.6244456171989441
            ],
            "translation" : [
                -6.064847469329834,
                1.472902536392212,
                -1.316998839378357
            ]
        }
    ],
    "materials" : [
        {
            "doubleSided" : true,
            "emissiveFactor" : [
                0,
                0,
                0
            ],
            "name" : "Braz",
            "pbrMetallicRoughness" : {
                "baseColorFactor" : [
                    0.37123775482177734,
                    0.3277781009674072,
                    0.3049873113632202,
                    1
                ],
                "metallicFactor" : 0,
                "roughnessFactor" : 0.5
            }
        },
        {
            "doubleSided" : true,
            "emissiveFactor" : [
                0,
                0,
                0
            ],
            "name" : "Material.005",
            "pbrMetallicRoughness" : {
                "baseColorFactor" : [
                    0.704738974571228,
                    0.630757212638855,
                    0.6239604353904724,
                    1
                ],
                "metallicFactor" : 0,
                "roughnessFactor" : 0.5
            }
        },
        {
            "doubleSided" : true,
            "emissiveFactor" : [
                0,
                0,
                0
            ],
            "name" : "Material.004",
            "pbrMetallicRoughness" : {
                "baseColorFactor" : [
                    0.6375970244407654,
                    0.3662526309490204,
                    0.3564002215862274,
                    1
                ],
                "metallicFactor" : 0,
                "roughnessFactor" : 0.5
            }
        },
        {
            "doubleSided" : true,
            "emissiveFactor" : [
                0,
                0,
                0
            ],
            "name" : "oko-wewnatrz",
            "pbrMetallicRoughness" : {
                "baseColorFactor" : [
                    0.02955685183405876,
                    0.020288556814193726,
                    0.019382361322641373,
                    1
                ],
                "metallicFactor" : 0,
                "roughnessFactor" : 0.5
            }
        },
        {
            "doubleSided" : true,
            "emissiveFactor" : [
                0,
                0,
                0
            ],
            "name" : "Material.002",
            "pbrMetallicRoughness" : {
                "baseColorFactor" : [
                    0.800000011920929,
                    0.800000011920929,
                    0.800000011920929,
                    1
                ],
                "metallicFactor" : 0,
                "roughnessFactor" : 0.5
            }
        },
        {
            "doubleSided" : true,
            "emissiveFactor" : [
                0,
                0,
                0
            ],
            "name" : "Material.008",
            "pbrMetallicRoughness" : {
                "baseColorFactor" : [
                    0.799103319644928,
                    0.04373486712574959,
                    0.027320902794599533,
                    1
                ],
                "metallicFactor" : 0,
                "roughnessFactor" : 0.5
            }
        }
    ],
    "meshes" : [
        {
            "name" : "Vert.002",
            "primitives" : [
                {
                    "attributes" : {
                        "POSITION" : 0,
                        "NORMAL" : 1
                    },
                    "indices" : 2,
                    "material" : 0
                },
                {
                    "attributes" : {
                        "POSITION" : 3,
                        "NORMAL" : 4
                    },
                    "indices" : 5,
                    "material" : 1
                },
                {
                    "attributes" : {
                        "POSITION" : 6,
                        "NORMAL" : 7
                    },
                    "indices" : 8,
                    "material" : 2
                },
                {
                    "attributes" : {
                        "POSITION" : 9,
                        "NORMAL" : 10
                    },
                    "indices" : 11,
                    "material" : 3
                },
                {
                    "attributes" : {
                        "POSITION" : 12,
                        "NORMAL" : 13
                    },
                    "indices" : 14,
                    "material" : 4
                },
                {
                    "attributes" : {
                        "POSITION" : 15,
                        "NORMAL" : 16
                    },
                    "indices" : 17,
                    "material" : 5
                }
            ]
        }
    ],
    "accessors" : [
        {
            "bufferView" : 0,
            "componentType" : 5126,
            "count" : 766,
            "max" : [
                0.46994879841804504,
                2.6742029190063477,
                0.5454810261726379
            ],
            "min" : [
                -0.46994879841804504,
                0.04062344878911972,
                -0.5868703126907349
            ],
            "type" : "VEC3"
        },
        {
            "bufferView" : 1,
            "componentType" : 5126,
            "count" : 766,
            "type" : "VEC3"
        },
        {
            "bufferView" : 2,
            "componentType" : 5123,
            "count" : 1236,
            "type" : "SCALAR"
        },
        {
            "bufferView" : 3,
            "componentType" : 5126,
            "count" : 108,
            "max" : [
                0.3409673869609833,
                1.5544497966766357,
                0.5001586079597473
            ],
            "min" : [
                -0.3409673571586609,
                0.09882433712482452,
                0.07560022175312042
            ],
            "type" : "VEC3"
        },
        {
            "bufferView" : 4,
            "componentType" : 5126,
            "count" : 108,
            "type" : "VEC3"
        },
        {
            "bufferView" : 5,
            "componentType" : 5123,
            "count" : 162,
            "type" : "SCALAR"
        },
        {
            "bufferView" : 6,
            "componentType" : 5126,
            "count" : 142,
            "max" : [
                0.35513967275619507,
                2.6053991317749023,
                0.5454810261726379
            ],
            "min" : [
                -0.3442620038986206,
                1.4914798736572266,
                0.17490646243095398
            ],
            "type" : "VEC3"
        },
        {
            "bufferView" : 7,
            "componentType" : 5126,
            "count" : 142,
            "type" : "VEC3"
        },
        {
            "bufferView" : 8,
            "componentType" : 5123,
            "count" : 222,
            "type" : "SCALAR"
        },
        {
            "bufferView" : 9,
            "componentType" : 5126,
            "count" : 240,
            "max" : [
                0.31317758560180664,
                1.8474020957946777,
                0.3878808617591858
            ],
            "min" : [
                -0.30229997634887695,
                1.669337511062622,
                0.30107149481773376
            ],
            "type" : "VEC3"
        },
        {
            "bufferView" : 10,
            "componentType" : 5126,
            "count" : 240,
            "type" : "VEC3"
        },
        {
            "bufferView" : 11,
            "componentType" : 5123,
            "count" : 420,
            "type" : "SCALAR"
        },
        {
            "bufferView" : 12,
            "componentType" : 5126,
            "count" : 84,
            "max" : [
                0.3630545139312744,
                1.994049310684204,
                0.4020826816558838
            ],
            "min" : [
                -0.3521769046783447,
                1.6087530851364136,
                0.26568904519081116
            ],
            "type" : "VEC3"
        },
        {
            "bufferView" : 13,
            "componentType" : 5126,
            "count" : 84,
            "type" : "VEC3"
        },
        {
            "bufferView" : 14,
            "componentType" : 5123,
            "count" : 180,
            "type" : "SCALAR"
        },
        {
            "bufferView" : 15,
            "componentType" : 5126,
            "count" : 240,
            "max" : [
                0.38154536485671997,
                1.2406929731369019,
                0.4247853755950928
            ],
            "min" : [
                -0.3815463185310364,
                0.9858021140098572,
                -0.07282671332359314
            ],
            "type" : "VEC3"
        },
        {
            "bufferView" : 16,
            "componentType" : 5126,
            "count" : 240,
            "type" : "VEC3"
        },
        {
            "bufferView" : 17,
            "componentType" : 5123,
            "count" : 360,
            "type" : "SCALAR"
        }
    ],
    "bufferViews" : [
        {
            "buffer" : 0,
            "byteLength" : 9192,
            "byteOffset" : 0
        },
        {
            "buffer" : 0,
            "byteLength" : 9192,
            "byteOffset" : 9192
        },
        {
            "buffer" : 0,
            "byteLength" : 2472,
            "byteOffset" : 18384
        },
        {
            "buffer" : 0,
            "byteLength" : 1296,
            "byteOffset" : 20856
        },
        {
            "buffer" : 0,
            "byteLength" : 1296,
            "byteOffset" : 22152
        },
        {
            "buffer" : 0,
            "byteLength" : 324,
            "byteOffset" : 23448
        },
        {
            "buffer" : 0,
            "byteLength" : 1704,
            "byteOffset" : 23772
        },
        {
            "buffer" : 0,
            "byteLength" : 1704,
            "byteOffset" : 25476
        },
        {
            "buffer" : 0,
            "byteLength" : 444,
            "byteOffset" : 27180
        },
        {
            "buffer" : 0,
            "byteLength" : 2880,
            "byteOffset" : 27624
        },
        {
            "buffer" : 0,
            "byteLength" : 2880,
            "byteOffset" : 30504
        },
        {
            "buffer" : 0,
            "byteLength" : 840,
            "byteOffset" : 33384
        },
        {
            "buffer" : 0,
            "byteLength" : 1008,
            "byteOffset" : 34224
        },
        {
            "buffer" : 0,
            "byteLength" : 1008,
            "byteOffset" : 35232
        },
        {
            "buffer" : 0,
            "byteLength" : 360,
            "byteOffset" : 36240
        },
        {
            "buffer" : 0,
            "byteLength" : 2880,
            "byteOffset" : 36600
        },
        {
            "buffer" : 0,
            "byteLength" : 2880,
            "byteOffset" : 39480
        },
        {
            "buffer" : 0,
            "byteLength" : 720,
            "byteOffset" : 42360
        }
    ],
    "buffers" : [
        {
            "byteLength" : 43080,
            "uri" : "data:application/octet-stream;base64,"
        }
    ]
}
