{
    "asset" : {
        "generator" : "Khronos glTF Blender I/O v1.5.17",
        "version" : "2.0"
    },
    "scene" : 0,
    "scenes" : [
        {
            "name" : "Scene",
            "nodes" : [
                0,
                1,
                2
            ]
        }
    ],
    "nodes" : [
        {
            "mesh" : 0,
            "name" : "Icosphere.016",
            "rotation" : [
                0.3595210909843445,
                0.26079052686691284,
                0.740904688835144,
                0.503778874874115
            ],
            "scale" : [
                0.7407050728797913,
                0.7407052516937256,
                0.7407052516937256
            ],
            "translation" : [
                -4.485663414001465,
                0.6028924584388733,
                -3.8047454357147217
            ]
        },
        {
            "mesh" : 1,
            "name" : "Icosphere.017",
            "rotation" : [
                -0.09631501883268356,
                0.7940361499786377,
                -0.5846279859542847,
                0.13579438626766205
            ],
            "scale" : [
                0.7407051920890808,
                0.7407051920890808,
                0.7407050728797913
            ],
            "translation" : [
                -5.092995643615723,
                0.9480517506599426,
                -3.8326025009155273
            ]
        },
        {
            "mesh" : 2,
            "name" : "Icosphere.018",
            "rotation" : [
                -0.25786563754081726,
                0.8192439675331116,
                -0.17004500329494476,
                -0.4831452965736389
            ],
            "scale" : [
                0.857003390789032,
                0.6619411706924438,
                0.6732595562934875
            ],
            "translation" : [
                -5.258722305297852,
                0.47415047883987427,
                -3.8595707416534424
            ]
        }
    ],
    "materials" : [
        {
            "doubleSided" : true,
            "name" : "grass",
            "pbrMetallicRoughness" : {
                "baseColorFactor" : [
                    0.12213869392871857,
                    0.7454043626785278,
                    0.14412856101989746,
                    1
                ],
                "metallicFactor" : 0,
                "roughnessFactor" : 0.5
            }
        }
    ],
    "meshes" : [
        {
            "name" : "Icosphere.020",
            "primitives" : [
                {
                    "attributes" : {
                        "POSITION" : 0,
                        "NORMAL" : 1,
                        "TEXCOORD_0" : 2
                    },
                    "indices" : 3,
                    "material" : 0
                }
            ]
        },
        {
            "name" : "Icosphere.021",
            "primitives" : [
                {
                    "attributes" : {
                        "POSITION" : 4,
                        "NORMAL" : 5,
                        "TEXCOORD_0" : 6
                    },
                    "indices" : 3,
                    "material" : 0
                }
            ]
        },
        {
            "name" : "Icosphere.022",
            "primitives" : [
                {
                    "attributes" : {
                        "POSITION" : 7,
                        "NORMAL" : 8,
                        "TEXCOORD_0" : 9
                    },
                    "indices" : 3,
                    "material" : 0
                }
            ]
        }
    ],
    "accessors" : [
        {
            "bufferView" : 0,
            "componentType" : 5126,
            "count" : 60,
            "max" : [
                0.8944249749183655,
                1,
                0.8506399989128113
            ],
            "min" : [
                -0.8944249749183655,
                -1,
                -0.8506399989128113
            ],
            "type" : "VEC3"
        },
        {
            "bufferView" : 1,
            "componentType" : 5126,
            "count" : 60,
            "type" : "VEC3"
        },
        {
            "bufferView" : 2,
            "componentType" : 5126,
            "count" : 60,
            "type" : "VEC2"
        },
        {
            "bufferView" : 3,
            "componentType" : 5123,
            "count" : 60,
            "type" : "SCALAR"
        },
        {
            "bufferView" : 4,
            "componentType" : 5126,
            "count" : 60,
            "max" : [
                0.8944249749183655,
                1,
                0.8506399989128113
            ],
            "min" : [
                -0.8944249749183655,
                -1,
                -0.8506399989128113
            ],
            "type" : "VEC3"
        },
        {
            "bufferView" : 5,
            "componentType" : 5126,
            "count" : 60,
            "type" : "VEC3"
        },
        {
            "bufferView" : 6,
            "componentType" : 5126,
            "count" : 60,
            "type" : "VEC2"
        },
        {
            "bufferView" : 7,
            "componentType" : 5126,
            "count" : 60,
            "max" : [
                0.8944249749183655,
                1,
                0.8506399989128113
            ],
            "min" : [
                -0.8944249749183655,
                -1,
                -0.8506399989128113
            ],
            "type" : "VEC3"
        },
        {
            "bufferView" : 8,
            "componentType" : 5126,
            "count" : 60,
            "type" : "VEC3"
        },
        {
            "bufferView" : 9,
            "componentType" : 5126,
            "count" : 60,
            "type" : "VEC2"
        }
    ],
    "bufferViews" : [
        {
            "buffer" : 0,
            "byteLength" : 720,
            "byteOffset" : 0
        },
        {
            "buffer" : 0,
            "byteLength" : 720,
            "byteOffset" : 720
        },
        {
            "buffer" : 0,
            "byteLength" : 480,
            "byteOffset" : 1440
        },
        {
            "buffer" : 0,
            "byteLength" : 120,
            "byteOffset" : 1920
        },
        {
            "buffer" : 0,
            "byteLength" : 720,
            "byteOffset" : 2040
        },
        {
            "buffer" : 0,
            "byteLength" : 720,
            "byteOffset" : 2760
        },
        {
            "buffer" : 0,
            "byteLength" : 480,
            "byteOffset" : 3480
        },
        {
            "buffer" : 0,
            "byteLength" : 720,
            "byteOffset" : 3960
        },
        {
            "buffer" : 0,
            "byteLength" : 720,
            "byteOffset" : 4680
        },
        {
            "buffer" : 0,
            "byteLength" : 480,
            "byteOffset" : 5400
        }
    ],
    "buffers" : [
        {
            "byteLength" : 5880,
            "uri" : "data:application/octet-stream;base64,"
        }
    ]
}
