{
    "asset" : {
        "generator" : "Khronos glTF Blender I/O v1.5.17",
        "version" : "2.0"
    },
    "scene" : 0,
    "scenes" : [
        {
            "name" : "Scene",
            "nodes" : [
                0,
                1,
                2
            ]
        }
    ],
    "nodes" : [
        {
            "mesh" : 0,
            "name" : "Icosphere.013",
            "rotation" : [
                -0.03240906819701195,
                0.9675585627555847,
                -0.17310477793216705,
                0.18114852905273438
            ],
            "scale" : [
                0.6265835165977478,
                0.6265836358070374,
                0.6265835762023926
            ],
            "translation" : [
                4.0909423828125,
                0.7023921012878418,
                2.3485944271087646
            ]
        },
        {
            "mesh" : 1,
            "name" : "Icosphere.014",
            "rotation" : [
                0.03520964831113815,
                0.8434238433837891,
                -0.415327250957489,
                0.3389687240123749
            ],
            "scale" : [
                0.6265835165977478,
                0.6265835762023926,
                0.6265835165977478
            ],
            "translation" : [
                3.5918431282043457,
                0.8709453344345093,
                2.0798065662384033
            ]
        },
        {
            "mesh" : 2,
            "name" : "Icosphere.015",
            "rotation" : [
                0.03520964831113815,
                0.8434238433837891,
                -0.415327250957489,
                0.3389687240123749
            ],
            "scale" : [
                0.7249634861946106,
                0.5599548816680908,
                0.5695294141769409
            ],
            "translation" : [
                3.533600330352783,
                0.4497547447681427,
                2.0893452167510986
            ]
        }
    ],
    "materials" : [
        {
            "doubleSided" : true,
            "name" : "grass",
            "pbrMetallicRoughness" : {
                "baseColorFactor" : [
                    0.12213869392871857,
                    0.7454043626785278,
                    0.14412856101989746,
                    1
                ],
                "metallicFactor" : 0,
                "roughnessFactor" : 0.5
            }
        }
    ],
    "meshes" : [
        {
            "name" : "Icosphere.017",
            "primitives" : [
                {
                    "attributes" : {
                        "POSITION" : 0,
                        "NORMAL" : 1,
                        "TEXCOORD_0" : 2
                    },
                    "indices" : 3,
                    "material" : 0
                }
            ]
        },
        {
            "name" : "Icosphere.018",
            "primitives" : [
                {
                    "attributes" : {
                        "POSITION" : 4,
                        "NORMAL" : 5,
                        "TEXCOORD_0" : 6
                    },
                    "indices" : 3,
                    "material" : 0
                }
            ]
        },
        {
            "name" : "Icosphere.019",
            "primitives" : [
                {
                    "attributes" : {
                        "POSITION" : 7,
                        "NORMAL" : 8,
                        "TEXCOORD_0" : 9
                    },
                    "indices" : 3,
                    "material" : 0
                }
            ]
        }
    ],
    "accessors" : [
        {
            "bufferView" : 0,
            "componentType" : 5126,
            "count" : 60,
            "max" : [
                0.8944249749183655,
                1,
                0.8506399989128113
            ],
            "min" : [
                -0.8944249749183655,
                -1,
                -0.8506399989128113
            ],
            "type" : "VEC3"
        },
        {
            "bufferView" : 1,
            "componentType" : 5126,
            "count" : 60,
            "type" : "VEC3"
        },
        {
            "bufferView" : 2,
            "componentType" : 5126,
            "count" : 60,
            "type" : "VEC2"
        },
        {
            "bufferView" : 3,
            "componentType" : 5123,
            "count" : 60,
            "type" : "SCALAR"
        },
        {
            "bufferView" : 4,
            "componentType" : 5126,
            "count" : 60,
            "max" : [
                0.8944249749183655,
                1,
                0.8506399989128113
            ],
            "min" : [
                -0.8944249749183655,
                -1,
                -0.8506399989128113
            ],
            "type" : "VEC3"
        },
        {
            "bufferView" : 5,
            "componentType" : 5126,
            "count" : 60,
            "type" : "VEC3"
        },
        {
            "bufferView" : 6,
            "componentType" : 5126,
            "count" : 60,
            "type" : "VEC2"
        },
        {
            "bufferView" : 7,
            "componentType" : 5126,
            "count" : 60,
            "max" : [
                0.8944249749183655,
                1,
                0.8506399989128113
            ],
            "min" : [
                -0.8944249749183655,
                -1,
                -0.8506399989128113
            ],
            "type" : "VEC3"
        },
        {
            "bufferView" : 8,
            "componentType" : 5126,
            "count" : 60,
            "type" : "VEC3"
        },
        {
            "bufferView" : 9,
            "componentType" : 5126,
            "count" : 60,
            "type" : "VEC2"
        }
    ],
    "bufferViews" : [
        {
            "buffer" : 0,
            "byteLength" : 720,
            "byteOffset" : 0
        },
        {
            "buffer" : 0,
            "byteLength" : 720,
            "byteOffset" : 720
        },
        {
            "buffer" : 0,
            "byteLength" : 480,
            "byteOffset" : 1440
        },
        {
            "buffer" : 0,
            "byteLength" : 120,
            "byteOffset" : 1920
        },
        {
            "buffer" : 0,
            "byteLength" : 720,
            "byteOffset" : 2040
        },
        {
            "buffer" : 0,
            "byteLength" : 720,
            "byteOffset" : 2760
        },
        {
            "buffer" : 0,
            "byteLength" : 480,
            "byteOffset" : 3480
        },
        {
            "buffer" : 0,
            "byteLength" : 720,
            "byteOffset" : 3960
        },
        {
            "buffer" : 0,
            "byteLength" : 720,
            "byteOffset" : 4680
        },
        {
            "buffer" : 0,
            "byteLength" : 480,
            "byteOffset" : 5400
        }
    ],
    "buffers" : [
        {
            "byteLength" : 5880,
            "uri" : "data:application/octet-stream;base64,"
        }
    ]
}
